<svg width="123" height="56" viewBox="0 0 123 56" fill="none" xmlns="http://www.w3.org/2000/svg">
<g id="logo">
<path id="Vector" d="M47.5566 26.8232C47.6121 26.8232 47.6676 26.9476 47.5566 26.8232V26.8232Z" fill="#B49164"/>
<path id="Vector_2" d="M47.3149 26.5185C47.0841 26.299 47.238 26.4453 47.3149 26.5185V26.5185Z" fill="#B49164"/>
<path id="Vector_3" d="M51.9428 19.9955C51.7794 19.0625 51.3565 18.2098 50.7335 17.5571C49.8958 16.5539 48.9464 15.6731 47.9082 14.9357C47.1716 14.3992 46.4021 13.9115 45.6325 13.4604L48.315 12.4972L51.7779 11.278H51.8879C51.8879 11.278 51.8879 11.278 51.9428 11.278C51.9978 11.278 51.9428 11.1926 51.9428 11.1073V10.9732C51.8328 10.7399 51.692 10.5263 51.5251 10.3392C51.2796 10.0084 50.9905 9.72068 50.6676 9.48569C50.595 9.42785 50.5128 9.38645 50.4257 9.36377L47.9961 8.42495L42.0816 6.19374L35.0567 3.47484L28.9772 1.13389L26.9874 0.365772C26.68 0.220344 26.3641 0.0981411 26.0419 0C25.8736 0.0127896 25.7091 0.0625202 25.5582 0.146309L24.0411 0.731544L18.5443 2.85302L11.5304 5.55974L5.19808 7.99822L1.75709 9.32719L1.55921 9.38815C1.38331 9.46131 2.0869 10.3392 2.10888 10.3514C2.37503 10.7326 2.72263 11.0343 3.12029 11.2292L5.54988 12.0949L7.55072 12.802C7.056 13.0703 6.57228 13.3507 6.07757 13.6433C5.13297 14.1893 4.22869 14.8172 3.37315 15.5209C2.7292 16.0339 2.1929 16.6952 1.80106 17.4595C1.66286 17.7536 1.58763 18.079 1.58119 18.4105V21.8244L3.16427 22.3974C2.1595 23.8389 1.59705 25.5992 1.55921 27.4207C1.58801 27.5673 1.65267 27.7023 1.7461 27.8109C1.83404 27.945 1.93299 28.0791 2.02094 28.1888L2.10888 28.2864C2.31614 28.5591 2.56103 28.7936 2.83446 28.9813C2.07916 30.8865 1.66472 32.9361 1.61417 35.0166C1.61417 35.4677 1.61417 35.931 1.61417 36.3943C1.64298 36.5409 1.70764 36.676 1.80106 36.7845C1.88901 36.9186 1.98796 37.0527 2.0759 37.1624L2.16385 37.26C1.79616 39.3457 1.59384 41.463 1.55921 43.5878C1.55921 44.1853 1.55921 44.8071 1.55921 45.3679C1.58801 45.5145 1.65267 45.6496 1.7461 45.7581C1.83404 45.8922 1.93299 46.0263 2.02094 46.1361L2.10888 46.2336C2.3712 46.5971 2.71133 46.8821 3.09831 47.0627L5.52789 47.9283L11.4534 50.0864L18.4783 52.598L24.5578 54.7683L26.5476 55.4876C26.8539 55.6266 27.1701 55.7368 27.4931 55.8168C27.6614 55.8138 27.8269 55.7679 27.9768 55.6827L29.4939 55.1462L34.9907 53.1711L42.0046 50.6594L48.304 48.4038L51.7669 47.1846H51.9319V47.0993C52.0017 44.1966 51.7618 41.295 51.2173 38.4548L51.756 38.2598H51.9209V38.1744C51.9834 35.2948 51.3817 32.4452 50.1729 29.8958L51.756 29.2618H51.9209V29.1764C51.8296 26.7923 50.9535 24.5279 49.4583 22.812L51.9319 21.9219L51.9428 19.9955ZM45.0279 24.6408C45.4126 24.9091 45.7974 25.1895 46.1272 25.4821H46.1822L46.2811 25.5675L46.534 25.7747L46.8198 26.0308L46.9188 26.1161H46.8528L46.9408 26.1893L47.1826 26.4331L47.3035 26.5551L47.4904 26.7745C47.4866 26.7946 47.4866 26.8154 47.4904 26.8355L47.5784 26.9452C47.6443 27.0306 47.7103 27.1281 47.7763 27.2013C47.5344 26.9208 47.7763 27.2622 47.8752 27.3476C47.9288 27.4113 47.9767 27.4807 48.0181 27.5548V27.628L48.1501 27.8353L48.271 28.0669L45.5336 29.0545C43.9928 27.8586 42.3721 26.7947 40.6854 25.8723L44.6871 24.3848L45.0279 24.6408ZM47.3695 31.5417C47.4465 31.6271 47.6773 31.9807 47.4355 31.6149C47.5454 31.7856 47.6663 31.9319 47.7763 32.0904L47.8422 32.1879C47.8422 32.2977 47.9632 32.3952 48.0291 32.505L48.183 32.7732L48.26 32.9073C48.3589 33.1024 48.4469 33.2975 48.5348 33.5047C48.9365 34.4024 49.2463 35.3471 49.4583 36.3212C49.4583 36.4065 49.4583 36.4919 49.4583 36.5772L48.8317 36.7967L45.5336 38.0159L36.0131 41.4542L27.7569 44.4047C27.1743 44.612 26.5696 44.7949 25.998 45.0387H25.899L25.2174 44.7949L18.0496 42.1491L8.23232 38.6499L4.24164 37.2234C4.35158 36.8576 4.46151 36.4919 4.59344 36.1261C5.34486 34.0788 6.57428 32.2902 8.15537 30.9443L11.4534 32.1636L18.4783 34.6752L24.5578 36.8576L26.5476 37.5648C26.8536 37.7078 27.1699 37.822 27.4931 37.9062C27.6482 37.9009 27.801 37.8637 27.9438 37.7965L29.4609 37.2478L34.9577 35.2726L41.9717 32.7732L46.8198 31.0297L46.9298 31.1516C47.0177 31.2369 47.3145 31.5661 46.9847 31.1516L47.3475 31.5539L47.2376 31.432L47.3695 31.5417ZM16.5545 16.0086L18.3684 16.6548C17.379 17.4108 16.3566 18.1179 15.3122 18.7641C14.2678 19.4103 13.5092 19.8127 12.5968 20.3247L10.1672 19.5078L11.0797 18.9714C12.8716 17.9472 14.7405 17.0816 16.5765 16.0818L16.5545 16.0086ZM39.641 26.3356L42.3125 27.9084C42.7302 28.1401 43.148 28.3839 43.5547 28.64L44.1264 28.9935L44.4012 29.1642L44.5332 29.2496H44.5881L44.0824 29.4325L34.7269 32.9195L27.1963 35.6018L26.2838 35.931L26.009 36.0407H25.943C25.8713 36.0108 25.7978 35.9864 25.7231 35.9676L24.8546 35.6506L17.4779 33.017L9.25472 30.0421C11.0357 28.7375 12.9816 27.7011 14.8725 26.5916L26.7345 30.8346L39.5311 26.2624L39.641 26.3356ZM21.0728 17.6302L22.0403 17.9716C20.6268 19.4891 19.0882 20.8565 17.445 22.0561L15.576 21.3855L16.2137 21.0197C17.9036 20.0188 19.5274 18.8861 21.0728 17.6302ZM28.6144 12.6923C29.6698 13.8384 30.7692 14.9235 31.9125 15.9477L29.307 16.8865L29.1421 16.6426L28.8783 16.2891L28.7684 16.1062C28.6254 15.8867 28.4825 15.6794 28.3506 15.4478L28.0428 14.9113C27.6841 14.0612 27.5073 13.1307 27.5261 12.1924V11.4852C27.9438 11.8998 28.2407 12.3021 28.6144 12.6923ZM26.7235 15.7648C26.8994 15.4722 27.0753 15.1674 27.2292 14.8625C27.713 15.6185 28.2407 16.3622 28.7903 17.0694L26.9324 17.7278C26.6246 17.8375 26.2838 17.9228 25.976 18.0691C25.867 18.0141 25.7527 17.9731 25.6352 17.9472L25.3384 17.8375C25.8375 17.1783 26.3 16.4861 26.7235 15.7648ZM24.5248 18.8616L26.5147 19.5688C26.8206 19.7118 27.1369 19.826 27.4601 19.9102C27.6278 19.9019 27.7923 19.8563 27.9438 19.7761L29.4609 19.2396L30.3514 18.9104C30.8901 19.5078 31.4508 20.1297 32.0115 20.6295C32.759 21.3489 33.5396 22.0195 34.3421 22.6657L26.7455 25.3846L20.1494 23.0315C21.7192 21.8063 23.174 20.4094 24.4918 18.8616H24.5248ZM33.9793 21.5684L33.6825 21.3245L33.5396 21.2026L32.9349 20.6905L32.3633 20.1784L32.1874 20.0077L31.9675 19.8127L31.4618 19.3128L31.2419 19.0811L31.143 18.9836L30.9781 18.8007L34.0233 17.7034C34.2981 17.935 34.584 18.1545 34.8698 18.374C36.1912 19.3724 37.5641 20.2843 38.9814 21.1051L35.1886 22.4706C34.7562 22.1618 34.3421 21.861 33.9463 21.5684H33.9793ZM32.5282 15.7282L32.0554 15.338L31.154 14.5333L30.9561 14.3505L30.8132 14.2163L30.4724 13.8871C30.2195 13.6555 29.9776 13.4116 29.7358 13.1678L29.406 12.8264L29.2521 12.6679C28.8893 12.2778 28.5265 11.8876 28.1527 11.4487C28.0772 11.3917 28.0072 11.3264 27.9438 11.2536V11.1682L27.614 10.7659V8.09576C30.3388 10.3887 33.1679 12.5252 36.0901 14.4968L35.1117 14.8382L32.5282 15.7282ZM23.5464 16.1793C23.3375 16.4476 23.1286 16.7158 22.9088 16.9718L22.1722 16.7036C22.7988 16.1549 23.4035 15.5941 23.9971 15.021C24.4039 14.6187 24.8107 14.2163 25.1954 13.8018C24.6945 14.6344 24.1436 15.4287 23.5464 16.1793ZM40.0368 20.6417L37.937 19.5078C36.8376 18.8616 35.7383 18.1545 34.6389 17.3864L34.9687 17.2766L38.4647 16.0574C39.4321 16.5939 40.4216 17.0938 41.411 17.6058C42.4004 18.1179 43.2249 18.5568 44.1044 19.0689L44.2693 19.1543L40.0368 20.6417ZM36.9916 14.1432C34.9145 12.911 32.9096 11.5347 30.9891 10.0222C29.8897 9.18088 28.7903 8.31522 27.691 7.43737L27.5481 7.31544V4.95012C30.2635 6.47417 32.9789 8.01041 35.6723 9.58323C36.222 9.90023 36.7717 10.2416 37.3104 10.5464C37.8491 10.8512 38.4097 11.0707 38.8934 11.3146L41.5429 12.5338L36.9916 14.1432ZM25.921 6.16936C24.6458 7.19352 23.4365 8.1933 22.1832 9.16869C20.0177 10.9055 17.7558 12.4896 15.4111 13.9115L15.0044 14.1432L12.19 13.1312L12.6408 12.9239C14.2898 12.1436 15.9938 11.4731 17.6099 10.6074C18.2915 10.2416 18.9511 9.81489 19.6217 9.38815L22.7658 7.58367L25.7451 5.91332L25.899 5.84016L25.921 6.16936ZM23.0847 11.5462C23.9751 10.8634 24.8656 10.1685 25.7451 9.46131C24.908 10.5256 24.0161 11.5351 23.0737 12.485C21.942 13.6467 20.7529 14.7376 19.5117 15.7526L18.5773 15.4234L17.9507 15.1917C19.7206 14.0944 21.4136 12.8142 23.0847 11.5462ZM11.9152 25.5309C10.4346 26.3557 8.99254 27.2632 7.59469 28.2498C7.2319 28.5058 6.8801 28.7863 6.49533 29.0667L5.60485 28.7497C6.74803 27.156 8.1454 25.8088 9.72745 24.775L11.9152 25.5309ZM5.54988 30.0299C5.03541 30.5781 4.568 31.178 4.15369 31.8222C4.38568 31.1327 4.67265 30.4677 5.01119 29.8348L5.54988 30.0299ZM46.567 15.0576C47.0067 15.3015 47.4355 15.5575 47.8532 15.8257L48.0071 15.9355H48.1061L48.315 16.0818L48.9086 16.4963L49.4033 16.8743H49.4693C49.5473 16.9325 49.6208 16.9978 49.6892 17.0694L45.2148 18.7763C44.5112 18.2764 43.7856 17.8009 43.016 17.3742C41.9167 16.728 40.8173 16.1549 39.718 15.5697L42.0046 14.7528L44.4342 13.8993C45.1158 14.2651 45.8524 14.6309 46.567 15.0576ZM29.417 2.58479L34.9138 4.70627L41.9057 7.40079L48.216 9.83927L48.6008 9.99777L47.8422 10.266L42.9061 12.0217L41.4989 11.3389C39.7619 10.5099 37.959 9.7905 36.244 8.90045C35.5844 8.57126 34.9687 8.15672 34.3311 7.79095C33.2977 7.18133 32.2533 6.57171 31.2089 5.98647L27.5261 3.90157V1.84105C27.6322 1.90632 27.7474 1.95164 27.8669 1.97517L29.417 2.58479ZM5.23106 10.6562L4.91225 10.5464L5.60485 10.2782L11.4534 8.03479L18.4893 5.32808L24.5688 2.98714L25.921 2.43848V3.07249C25.7341 3.15783 25.5582 3.27976 25.3823 3.3773L22.9088 4.79162C20.875 5.9377 18.8301 7.08379 16.8183 8.29083C15.4292 9.06916 14.0056 9.76909 12.5528 10.3879C11.4534 10.9732 10.2332 11.4487 9.08982 12.0217L5.23106 10.6562ZM6.33042 16.35C7.71236 15.4388 9.14434 14.6244 10.6179 13.9115L11.4095 14.2042L13.5422 14.9601C11.3966 15.9923 9.30458 17.1565 7.27587 18.4471L4.85728 17.5449C5.33079 17.1152 5.82633 16.7162 6.34142 16.35H6.33042ZM7.056 23.7874C5.90825 24.6623 4.89175 25.7321 4.04376 26.9574C3.82388 27.2866 3.63699 27.6158 3.4501 27.945H3.37315C3.65762 26.1719 4.42494 24.538 5.57187 23.2631L7.056 23.7874ZM50.2608 44.6242V44.9412C50.2608 44.9412 50.2608 45.2094 50.2608 45.2582H50.2059C50.1287 45.2975 50.0475 45.3263 49.964 45.3436L48.9636 45.7093L40.3446 48.794L30.1316 52.4517L26.8335 53.671L26.0419 53.9636H25.987H25.91C25.6792 53.8538 25.4263 53.7929 25.1954 53.7075L23.8212 53.2198L19.7206 51.7568L9.25472 47.9649L3.25222 45.8434C3.22875 43.3513 3.46112 40.8643 3.94481 38.4305L5.58286 39.0157L11.4534 41.1006L18.4783 43.6122L24.5578 45.7947L26.5476 46.5018C26.8536 46.6448 27.1699 46.759 27.4931 46.8432C27.6608 46.8349 27.8253 46.7893 27.9768 46.7091L29.4939 46.1726L34.9907 44.1975L42.0046 41.6858L48.304 39.4302L49.931 38.8572C50.1564 40.7693 50.2666 42.6959 50.2608 44.6242ZM49.953 32.4318C50.0674 33.1091 50.1481 33.7929 50.1949 34.4801C50.1949 34.6874 50.1949 34.9069 50.1949 35.1263C49.4857 33.4827 48.5135 31.9956 47.3255 30.737L48.26 30.4079L49.3593 30.0299C49.6119 30.8274 49.8032 31.6472 49.931 32.4806L49.953 32.4318ZM48.9746 22.9095L49.1065 23.1046L49.2714 23.385L49.3374 23.507C49.339 23.5435 49.339 23.5801 49.3374 23.6167C49.4033 23.7386 49.4583 23.8605 49.5133 23.9825C49.9098 24.8821 50.1415 25.8602 50.1949 26.8599C50.1949 27.0062 50.2608 27.2378 50.1949 27.311C50.1293 27.3218 50.0626 27.3218 49.997 27.311L48.8976 27.6889C47.887 26.2998 46.7109 25.0694 45.4017 24.0312L48.8536 22.812L48.9746 22.9095Z" fill="#B49164"/>
<path id="Vector_4" d="M67.9359 34.7386C67.2283 34.7343 66.5278 34.8924 65.8829 35.202C65.2373 35.5115 64.6625 35.9654 64.1968 36.5327L64.3667 36.789C64.8126 36.5726 65.2936 36.4497 65.7832 36.4272C67.6956 36.4272 68.8991 38.0855 68.8991 40.7541V46.7848H71.8597V38.9751C71.8923 38.4149 71.813 37.8537 71.6283 37.3281C71.4436 36.8026 71.1566 36.3243 70.7865 35.9247C70.4158 35.5249 69.971 35.2127 69.4801 35.0084C68.9886 34.804 68.4625 34.7121 67.9359 34.7386Z" fill="#B49164"/>
<path id="Vector_5" d="M63.5579 34.7341H61.0012V46.7848H63.5579V34.7341Z" fill="#B49164"/>
<path id="Vector_6" d="M79.5826 44.9346C78.0102 44.9346 77.1135 43.419 77.1135 40.9181V34.7341H74.4367V42.4792C74.3945 43.0337 74.4526 43.5923 74.6086 44.1186C74.7639 44.6448 75.0132 45.1268 75.3398 45.5331C75.6658 45.9394 76.0621 46.2608 76.5018 46.4763C76.9422 46.6918 77.4164 46.7965 77.8933 46.7837C78.5861 46.7675 79.2662 46.5681 79.883 46.2006C80.4998 45.833 81.0373 45.3068 81.454 44.6618L81.2719 44.4193C80.7573 44.7614 80.1751 44.9392 79.5826 44.9346Z" fill="#B49164"/>
<path id="Vector_7" d="M84.6504 34.7341H82.0938V46.7848H84.6504V34.7341Z" fill="#B49164"/>
<path id="Vector_8" d="M92.4027 39.2636C90.8495 38.7327 89.5105 38.2314 89.5105 37.1402C89.5053 36.942 89.5424 36.7453 89.6172 36.5651V36.4176H89.8179C89.9975 36.3686 90.1822 36.3438 90.3669 36.3439C90.8885 36.3439 91.4037 36.4633 91.8811 36.6942C92.3586 36.9252 92.7868 37.2629 93.139 37.6858L93.2195 37.8037L95.509 36.0342L95.3888 35.9015C95.0392 35.515 94.6206 35.212 94.1597 35.0115C93.6989 34.8111 93.2054 34.7175 92.7107 34.7366C92.1329 34.7252 91.5602 34.8511 91.031 35.1055C90.5018 35.36 90.0288 35.7371 89.644 36.2112L89.497 36.4029H89.3628C88.8585 36.524 88.4021 36.8173 88.0583 37.241C87.7144 37.6646 87.5009 38.197 87.4479 38.7622C87.4479 40.6644 89.336 41.3427 91.1569 42.0063C92.4966 42.4929 93.8357 42.9648 93.9424 43.9232C93.9648 44.2706 93.8747 44.6153 93.688 44.8965L93.5813 45.0587H93.3665C93.1575 45.0828 92.9466 45.0828 92.7376 45.0587C91.5213 45.0164 90.3663 44.4622 89.5105 43.5104V43.3925L87.2069 45.1767L87.3277 45.3094C87.7406 45.7759 88.234 46.1468 88.7786 46.4001C89.3238 46.6533 89.9093 46.7839 90.5012 46.784C91.0866 46.7961 91.6676 46.6709 92.2052 46.4167C92.7433 46.1624 93.2259 45.7849 93.6209 45.3094L93.782 45.1324H93.9692C94.1968 45.1324 96.2459 44.4099 96.152 42.3307C96.0184 40.5464 94.1834 39.8976 92.4027 39.2636Z" fill="#B49164"/>
<path id="Vector_9" d="M103.716 44.9343C102 44.9343 101.008 43.4187 101.008 40.9179V34.7341H98.0878V42.479C98.0412 43.0347 98.1057 43.5947 98.2764 44.122C98.4471 44.6492 98.72 45.1321 99.0773 45.5386C99.4352 45.945 99.8686 46.2662 100.35 46.4807C100.832 46.6952 101.351 46.7984 101.873 46.7833C102.627 46.7671 103.367 46.5676 104.037 46.2C104.708 45.8323 105.291 45.3062 105.743 44.6614L105.544 44.4189C104.988 44.7592 104.357 44.9369 103.716 44.9343Z" fill="#B49164"/>
<path id="Vector_10" d="M108.938 34.7341H106.382V46.7848H108.938V34.7341Z" fill="#B49164"/>
<path id="Vector_11" d="M114.691 29.0632H111.495V46.7848H114.691V29.0632Z" fill="#B49164"/>
<path id="Vector_12" d="M121.779 34.7341H119.215L114.691 40.705L119.201 46.7848H123L117.657 39.7566L121.779 34.7341Z" fill="#B49164"/>
<path id="Vector_13" d="M89.7635 26.9366V14.886H86.9595V24.7725H82.6036H79.7996H63.2336L61.0012 26.563V26.9366H77.1177H79.9083H86.9595H88.28H89.7635Z" fill="#B49164"/>
<path id="Vector_14" d="M94.7119 21.0765C94.7119 23.6406 93.8088 25.1124 92.248 25.1124C91.6619 25.1051 91.0879 24.9167 90.5836 24.5662L90.4027 24.809C90.8143 25.4543 91.3448 25.9811 91.9552 26.3491C92.5656 26.7172 93.2393 26.9169 93.9251 26.9331C94.4026 26.9567 94.8794 26.8603 95.323 26.6504C95.7666 26.4404 96.1673 26.1217 96.4984 25.7155C96.8288 25.3092 97.0826 24.8247 97.2417 24.2943C97.4009 23.7639 97.4623 23.1997 97.4214 22.6392V14.886H94.7119V21.0765Z" fill="#B49164"/>
<path id="Vector_15" d="M98.7119 9.61911C98.6135 9.57431 98.508 9.54561 98.4 9.53426H98.2958V9.44948C98.3553 9.2761 98.3853 9.0947 98.3847 8.91224C98.3847 7.49856 97.7756 7.08862 97.2553 7.08862C96.7746 7.11244 96.3202 7.30483 95.9795 7.62849C95.6395 7.95223 95.4369 8.38442 95.4119 8.84157C95.4119 9.54844 95.9028 9.94427 97.0469 10.128H97.2406L97.0917 10.2411C96.0747 10.8648 94.9818 11.368 93.8364 11.7397L93.5986 11.8386H93.8511C94.2014 11.9375 94.5593 12.0084 94.9217 12.0506C96.053 11.723 97.0763 11.1242 97.8944 10.3118C97.9763 10.3336 98.0555 10.362 98.1322 10.3967L98.6972 9.6474L98.7119 9.61911ZM97.8944 9.13844C97.9079 9.22754 97.9079 9.31799 97.8944 9.40709C96.4077 9.12433 96.0658 8.65783 96.0658 8.33267C96.0658 8.00752 96.5119 7.69647 96.9581 7.69647C97.4036 7.69647 97.8944 8.33267 97.8944 9.13844Z" fill="#B49164"/>
<path id="Vector_16" d="M118.526 17.7134L116.295 14.886L114.051 17.7134L116.295 20.5569L118.526 17.7134Z" fill="#B49164"/>
<path id="Vector_17" d="M119.165 9.67058C119.066 9.62486 118.961 9.59565 118.853 9.58403H118.763V9.49754C118.811 9.31842 118.836 9.13432 118.837 8.94938C118.837 7.50692 118.228 7.08862 117.708 7.08862C117.229 7.11322 116.776 7.31 116.438 7.64061C116.101 7.97123 115.901 8.41207 115.879 8.87729C115.879 9.59849 116.37 10.0024 117.515 10.1899H117.708L117.544 10.3053C116.528 10.9416 115.435 11.4551 114.289 11.8343L114.051 11.9352H114.304C114.652 11.9998 115.005 12.0383 115.36 12.0506C116.45 11.7354 117.441 11.1602 118.243 10.3774L118.466 10.4639L119.031 9.69943L119.165 9.67058ZM118.377 9.18019C118.39 9.27106 118.39 9.36336 118.377 9.45423C116.891 9.16573 116.549 8.68973 116.549 8.35798C116.549 8.02623 117.009 7.70888 117.456 7.70888C117.901 7.70888 118.347 8.35798 118.377 9.18019Z" fill="#B49164"/>
<path id="Vector_18" d="M120.212 14.886V24.5224H104.478C104.685 23.9223 104.786 23.2835 104.777 22.6406V14.886H101.975V21.0776C101.975 23.6423 101.037 25.1143 99.3919 25.1143C98.77 25.1089 98.1596 24.9204 97.6239 24.568L97.4335 24.8107C97.87 25.4566 98.4318 25.9834 99.0774 26.3515C99.723 26.7194 100.435 26.9191 101.16 26.9353C101.787 26.9535 102.407 26.7827 102.956 26.4409C103.504 26.0991 103.959 25.5989 104.274 24.9929L106.109 26.6318H123V14.886H120.212Z" fill="#B49164"/>
<path id="Vector_19" d="M74.7744 17.0142C75.6155 16.9655 76.4534 17.1558 77.2089 17.5668C77.9638 17.9778 78.6106 18.5958 79.0874 19.3615C79.4543 20.0263 79.6748 20.7773 79.7298 21.5535C79.7848 22.3297 79.6729 23.1092 79.4032 23.8289V23.9803L79.5681 24.1014H79.664C80.5415 23.5683 81.2408 22.7401 81.6613 21.7375C82.0813 20.735 82.1995 19.6106 81.9988 18.5286C81.7636 17.4295 81.1807 16.4588 80.3555 15.79C79.5297 15.1213 78.5154 14.7984 77.494 14.879H67.8797L72.7552 9.21533H70.0772L65.4758 15.0305L65.8191 17.0142H74.7744Z" fill="#B49164"/>
</g>
</svg>
